<svg width="50" height="50" viewBox="0 0 50 50" fill="none" xmlns="http://www.w3.org/2000/svg">
<circle cx="25.0005" cy="25" r="24.5" stroke="white"/>
<path d="M23.4103 26.28C20.3323 23.205 19.7163 18.693 21.3573 15C20.1273 15.41 19.1013 16.23 18.0763 17.256C17.1015 18.2228 16.3278 19.3731 15.7998 20.6404C15.2718 21.9077 15 23.2671 15 24.64C15 26.0129 15.2718 27.3723 15.7998 28.6396C16.3278 29.9069 17.1015 31.0572 18.0763 32.024C22.1783 36.126 28.5363 35.921 32.6383 31.819C33.6643 30.793 34.4843 29.768 34.8943 28.537C30.9983 29.973 26.4853 29.357 23.4083 26.281" stroke="white" stroke-width="1.5" stroke-linecap="round" stroke-linejoin="round"/>
</svg>
